<?xml version="1.0" encoding="UTF-8" standalone="no"?>
<!-- Generator: Adobe Illustrator 19.0.0, SVG Export Plug-In . SVG Version: 6.00 Build 0)  -->

<svg
   xmlns:dc="http://purl.org/dc/elements/1.1/"
   xmlns:cc="http://creativecommons.org/ns#"
   xmlns:rdf="http://www.w3.org/1999/02/22-rdf-syntax-ns#"
   xmlns:svg="http://www.w3.org/2000/svg"
   xmlns="http://www.w3.org/2000/svg"
   xmlns:sodipodi="http://sodipodi.sourceforge.net/DTD/sodipodi-0.dtd"
   xmlns:inkscape="http://www.inkscape.org/namespaces/inkscape"
   version="1.1"
   id="Capa_1"
   x="0px"
   y="0px"
   viewBox="0 0 512 512"
   style="enable-background:new 0 0 512 512;"
   xml:space="preserve"
   sodipodi:docname="electric-car.svg"
   inkscape:version="0.92.1 r15371"><metadata
   id="metadata77"><rdf:RDF><cc:Work
       rdf:about=""><dc:format>image/svg+xml</dc:format><dc:type
         rdf:resource="http://purl.org/dc/dcmitype/StillImage" /></cc:Work></rdf:RDF></metadata><defs
   id="defs75" /><sodipodi:namedview
   pagecolor="#ffffff"
   bordercolor="#666666"
   borderopacity="1"
   objecttolerance="10"
   gridtolerance="10"
   guidetolerance="10"
   inkscape:pageopacity="0"
   inkscape:pageshadow="2"
   inkscape:window-width="1364"
   inkscape:window-height="705"
   id="namedview73"
   showgrid="false"
   inkscape:zoom="2"
   inkscape:cx="239.90824"
   inkscape:cy="400.8673"
   inkscape:window-x="-8"
   inkscape:window-y="-8"
   inkscape:window-maximized="1"
   inkscape:current-layer="Capa_1" />
<path
   style="fill:#57555C;"
   d="M302,60v30H75c-24.901,0-45,20.099-45,45v242c0,8.399-6.599,15-15,15s-15-6.601-15-15V135  c0-24.6,12.001-46.5,30.3-60C42.599,65.4,58.2,60,75,60H302z"
   id="path2" />
<path
   style="fill:#3C3A41;"
   d="M302,75v15H75c-24.901,0-45,20.099-45,45v242c0,8.399-6.599,15-15,15s-15-6.601-15-15V135  c0-24.6,12.001-46.5,30.3-60H302z"
   id="path4" />
<path
   style="fill:#FD4E26;"
   d="M416.3,362H35.7l60.899-123.1c18.001-35.7,54.001-57.9,93.9-57.9H261.5  c39.899,0,75.899,22.2,93.9,57.9L416.3,362z"
   id="path6" />
<path
   style="fill:#FD3018;"
   d="M416.3,362H226V181h35.501c39.899,0,75.899,22.2,93.9,57.9L416.3,362z"
   id="path8" />
<path
   style="fill:#57555C;"
   d="M367.7,332H84.3l39.3-79.6c12.599-25.501,38.401-41.4,66.899-41.4H261.5  c28.499,0,54.3,15.899,66.899,41.4L367.7,332z"
   id="path10" />
<path
   style="fill:#3C3A41;"
   d="M367.7,332H226V211h35.501c28.499,0,54.3,15.899,66.899,41.4L367.7,332z"
   id="path12" />
<path
   style="fill:#FD4E26;"
   d="M241,196v121c0,8.399-6.599,15-15,15s-15-6.601-15-15V196c0-8.401,6.599-15,15-15  S241,187.599,241,196z"
   id="path14" />
<path
   style="fill:#FD3018;"
   d="M241,196v121c0,8.399-6.599,15-15,15V181C234.401,181,241,187.599,241,196z"
   id="path16" />
<path
   style="fill:#FD6243;"
   d="M512,407c0,24.899-20.099,45-45,45H45c-24.901,0-45-20.101-45-45v-30c0-41.4,33.6-75,75-75h332  C464.9,302,512,349.1,512,407z"
   id="path18" />
<path
   style="fill:#FD4E26;"
   d="M512,407c0,24.899-20.099,45-45,45H226V302h181C464.9,302,512,349.1,512,407z"
   id="path20" />
<path
   style="fill:#3C3A41;"
   d="M257,392h-16c-8.291,0-15-6.709-15-15s6.709-15,15-15h16c8.291,0,15,6.709,15,15S265.291,392,257,392  z"
   id="path22" />
<path
   style="fill:#57555C;"
   d="M120,392c-32.999,0-60,26.999-60,60c0,32.999,27.001,60,60,60s60-27.001,60-60  C180,418.999,152.999,392,120,392z"
   id="path24" />
<path
   style="fill:#CAE8F9;"
   d="M120,422c-16.5,0-30,13.5-30,30s13.5,30,30,30s30-13.5,30-30S136.5,422,120,422z"
   id="path26" />
<path
   style="fill:#3C3A41;"
   d="M392,392c-32.999,0-60,26.999-60,60c0,32.999,27.001,60,60,60s60-27.001,60-60  C452,418.999,424.999,392,392,392z"
   id="path28" />
<path
   style="fill:#B7E0F6;"
   d="M392,422c-16.5,0-30,13.5-30,30s13.5,30,30,30s30-13.5,30-30S408.5,422,392,422z"
   id="path30" />
<path
   style="fill:#32D736;"
   d="M512,75c0,4.799-2.401,9.6-6.301,12.299C498.8,92.1,491.901,97.8,484.999,103.5  c-13.799,11.398-29.7,24-49.499,33.6c-6,2.699-42.599-24.901-49.501-22.8c-4.499,1.199,21,32.401,16.5,33.3  C394.701,149.099,386.3,150,377,150h-2.1c-51.599-0.601-82.8-26.7-107.699-47.701C262.099,97.8,257,93.9,251.901,90V60  c5.4-4.2,10.8-8.401,16.5-12.9C293.301,26.1,324.5,0,377,0c10.201,0,19.799,1.199,28.5,2.999c5.099,1.201-19.801,32.401-15.3,33.9  c6.301,2.1,42.299-25.499,47.701-22.8c19.499,9.3,34.799,22.2,48.3,33.3c6.599,5.7,12.9,10.801,19.499,15.3  C509.599,65.4,512,70.199,512,75z"
   id="path32" />
<g
   id="g38">
	<path
   style="fill:#10BB67;"
   d="M512,75c0,4.799-2.401,9.6-6.301,12.299C498.8,92.1,491.901,97.8,484.999,103.5   c-13.799,11.398-29.7,24-49.499,33.6c-6,2.699-42.599-24.901-49.501-22.8c-4.499,1.199,21,32.401,16.5,33.3   C394.701,149.099,386.3,150,377,150h-2.1c-51.599-0.601-82.8-26.7-107.699-47.701C262.099,97.8,257,93.9,251.901,90V75H512z"
   id="path34" />
	<path
   style="fill:#10BB67;"
   d="M369.8,76.8l65.7,60.3c-9.901,4.499-20.7,8.099-33.001,10.499L339.2,90h-87.299   c-1.201-0.901-3.401-1.8-4.6-2.701C243.401,84.3,241,79.799,241,75c0-4.801,2.401-9.6,6.301-12.301   c1.199-0.899,3.399-1.8,4.6-2.699H343.1l62.4-57.001c11.999,2.701,22.8,6.301,32.401,11.1l-66,60.901L369.8,76.8z"
   id="path36" />
</g>
<path
   style="fill:#0CA656;"
   d="M435.5,137.1c-9.901,4.499-20.7,8.099-33.001,10.499L339.2,90h-87.299  c-1.201-0.901-3.401-1.8-4.6-2.701C243.401,84.3,241,79.799,241,75h130.901l-2.1,1.8L435.5,137.1z"
   id="path40" />
<g
   id="g42">
</g>
<g
   id="g44">
</g>
<g
   id="g46">
</g>
<g
   id="g48">
</g>
<g
   id="g50">
</g>
<g
   id="g52">
</g>
<g
   id="g54">
</g>
<g
   id="g56">
</g>
<g
   id="g58">
</g>
<g
   id="g60">
</g>
<g
   id="g62">
</g>
<g
   id="g64">
</g>
<g
   id="g66">
</g>
<g
   id="g68">
</g>
<g
   id="g70">
</g>
<path
   inkscape:connector-curvature="0"
   style="fill:#95b8c2;stroke-width:0.26390219"
   d="m 96.296613,149.58486 c -11.335165,0 -20.524731,-9.47926 -20.524731,-21.17232 0,-12.8005 13.582997,-29.216148 20.524731,-38.52282 7.059267,9.426649 20.524727,25.72232 20.524727,38.52282 -2.6e-4,11.69306 -9.18879,21.17232 -20.524727,21.17232 z"
   id="path24-3" /><path
   inkscape:connector-curvature="0"
   style="fill:#ffffff;stroke-width:0.33014569"
   d="m 109.01266,128.63075 c 0,6.24066 -5.90858,11.3178 -13.171647,11.3178 -1.978415,0 -3.582476,-1.37475 -3.582476,-3.07112 0,-1.69637 1.603703,-3.07112 3.582476,-3.07112 3.311927,0 6.006347,-2.32182 6.006347,-5.17525 0,-1.69638 1.6037,-3.07113 3.58247,-3.07113 1.97912,-3.1e-4 3.58283,1.37445 3.58283,3.07082 z"
   id="path28-9" /><path
   inkscape:connector-curvature="0"
   style="fill:#afd5ff;stroke-width:0.26763886"
   d="m 96.296613,89.88972 c 0.433217,0.577415 0.890447,1.180667 1.366607,1.806768 2.52911,5.473859 4.17331,10.914262 4.17331,15.929032 0,14.6736 -11.483058,26.58301 -25.700159,26.7212 -0.437964,-1.73196 -0.672109,-3.54798 -0.672109,-5.42082 -2.65e-4,-12.97099 13.78675,-29.605557 20.832351,-39.03618 z"
   id="path26-0" /><path
   inkscape:connector-curvature="0"
   style="fill:#95b8c2;stroke-width:0.26390219"
   d="m 146.65381,149.84757 c -11.33516,0 -20.52473,-9.47926 -20.52473,-21.17232 0,-12.8005 13.583,-29.216148 20.52473,-38.52282 7.05927,9.426649 20.52473,25.72232 20.52473,38.52282 -2.6e-4,11.69306 -9.18879,21.17232 -20.52473,21.17232 z"
   id="path24-3-2" /><path
   inkscape:connector-curvature="0"
   style="fill:#ffffff;stroke-width:0.33014569"
   d="m 159.36986,128.89346 c 0,6.24066 -5.90858,11.3178 -13.17165,11.3178 -1.97841,0 -3.58247,-1.37475 -3.58247,-3.07112 0,-1.69637 1.6037,-3.07112 3.58247,-3.07112 3.31193,0 6.00635,-2.32182 6.00635,-5.17525 0,-1.69638 1.6037,-3.07113 3.58247,-3.07113 1.97912,-3.1e-4 3.58283,1.37445 3.58283,3.07082 z"
   id="path28-9-4" /><path
   inkscape:connector-curvature="0"
   style="fill:#afd5ff;stroke-width:0.26763886"
   d="m 146.65381,90.15243 c 0.43322,0.577415 0.89045,1.180667 1.36661,1.806768 2.52911,5.473859 4.17331,10.914262 4.17331,15.929032 0,14.6736 -11.48306,26.58301 -25.70016,26.7212 -0.43796,-1.73196 -0.67211,-3.54798 -0.67211,-5.42082 -2.6e-4,-12.97099 13.78675,-29.605557 20.83235,-39.03618 z"
   id="path26-0-5" /><path
   inkscape:connector-curvature="0"
   style="fill:#95b8c2;stroke-width:0.26390219"
   d="m 197.65381,149.34757 c -11.33516,0 -20.52473,-9.47926 -20.52473,-21.17232 0,-12.8005 13.583,-29.21615 20.52473,-38.52282 7.05927,9.42665 20.52473,25.72232 20.52473,38.52282 -2.6e-4,11.69306 -9.18879,21.17232 -20.52473,21.17232 z"
   id="path24-3-1" /><path
   inkscape:connector-curvature="0"
   style="fill:#ffffff;stroke-width:0.33014569"
   d="m 210.36986,128.39346 c 0,6.24066 -5.90858,11.3178 -13.17165,11.3178 -1.97841,0 -3.58247,-1.37475 -3.58247,-3.07112 0,-1.69637 1.6037,-3.07112 3.58247,-3.07112 3.31193,0 6.00635,-2.32182 6.00635,-5.17525 0,-1.69638 1.6037,-3.07113 3.58247,-3.07113 1.97912,-3.1e-4 3.58283,1.37445 3.58283,3.07082 z"
   id="path28-9-40" /><path
   inkscape:connector-curvature="0"
   style="fill:#afd5ff;stroke-width:0.26763886"
   d="m 197.65381,89.65243 c 0.43322,0.577415 0.89045,1.180667 1.36661,1.806768 2.52911,5.473862 4.17331,10.914262 4.17331,15.929032 0,14.6736 -11.48306,26.58301 -25.70016,26.7212 -0.43796,-1.73196 -0.67211,-3.54798 -0.67211,-5.42082 -2.6e-4,-12.97099 13.78675,-29.60556 20.83235,-39.03618 z"
   id="path26-0-7" /></svg>