<?xml version="1.0" encoding="UTF-8" standalone="no"?>
<!-- Generator: Adobe Illustrator 19.0.0, SVG Export Plug-In . SVG Version: 6.00 Build 0)  -->

<svg
   xmlns:dc="http://purl.org/dc/elements/1.1/"
   xmlns:cc="http://creativecommons.org/ns#"
   xmlns:rdf="http://www.w3.org/1999/02/22-rdf-syntax-ns#"
   xmlns:svg="http://www.w3.org/2000/svg"
   xmlns="http://www.w3.org/2000/svg"
   xmlns:sodipodi="http://sodipodi.sourceforge.net/DTD/sodipodi-0.dtd"
   xmlns:inkscape="http://www.inkscape.org/namespaces/inkscape"
   version="1.1"
   id="Capa_1"
   x="0px"
   y="0px"
   width="36px" 
   height="52px"
   viewBox="0 0 512 512"
   style="enable-background:new 0 0 512 512;"
   xml:space="preserve"
   sodipodi:docname="car-marker.svg"
   inkscape:version="0.92.1 r15371"><metadata
   id="metadata77"><rdf:RDF><cc:Work
       rdf:about=""><dc:format>image/svg+xml</dc:format><dc:type
         rdf:resource="http://purl.org/dc/dcmitype/StillImage" /></cc:Work></rdf:RDF></metadata><defs
   id="defs75" /><sodipodi:namedview
   pagecolor="#ffffff"
   bordercolor="#666666"
   borderopacity="1"
   objecttolerance="10"
   gridtolerance="10"
   guidetolerance="10"
   inkscape:pageopacity="0"
   inkscape:pageshadow="2"
   inkscape:window-width="1364"
   inkscape:window-height="705"
   id="namedview73"
   showgrid="false"
   inkscape:zoom="0.33333333"
   inkscape:cx="239.90824"
   inkscape:cy="183.56635"
   inkscape:window-x="-8"
   inkscape:window-y="-8"
   inkscape:window-maximized="1"
   inkscape:current-layer="Capa_1" />


<path
   style="fill:#fd4e26"
   d="M 419.3,191 H 38.7 L 99.599,67.9 C 117.6,32.2 153.6,10 193.499,10 H 264.5 c 39.899,0 75.899,22.2 93.9,57.9 z"
   id="path6"
   inkscape:connector-curvature="0" />
<path
   style="fill:#fd3018"
   d="M 419.3,191 H 229 V 10 h 35.501 c 39.899,0 75.899,22.2 93.9,57.9 z"
   id="path8"
   inkscape:connector-curvature="0" />
<path
   style="fill:#57555c"
   d="M 370.7,161 H 87.3 L 126.6,81.4 C 139.199,55.899 165.001,40 193.499,40 H 264.5 c 28.499,0 54.3,15.899 66.899,41.4 z"
   id="path10"
   inkscape:connector-curvature="0" />
<path
   style="fill:#3c3a41"
   d="M 370.7,161 H 229 V 40 h 35.501 c 28.499,0 54.3,15.899 66.899,41.4 z"
   id="path12"
   inkscape:connector-curvature="0" />
<path
   style="fill:#fd4e26"
   d="m 244,25 v 121 c 0,8.399 -6.599,15 -15,15 -8.401,0 -15,-6.601 -15,-15 V 25 c 0,-8.401 6.599,-15 15,-15 8.401,0 15,6.599 15,15 z"
   id="path14"
   inkscape:connector-curvature="0" />
<path
   style="fill:#fd3018"
   d="m 244,25 v 121 c 0,8.399 -6.599,15 -15,15 V 10 c 8.401,0 15,6.599 15,15 z"
   id="path16"
   inkscape:connector-curvature="0" />
<path
   style="fill:#fd6243"
   d="m 515,236 c 0,24.899 -20.099,45 -45,45 H 48 C 23.099,281 3,260.899 3,236 v -30 c 0,-41.4 33.6,-75 75,-75 h 332 c 57.9,0 105,47.1 105,105 z"
   id="path18"
   inkscape:connector-curvature="0" />
<path
   style="fill:#fd4e26"
   d="m 515,236 c 0,24.899 -20.099,45 -45,45 H 229 V 131 h 181 c 57.9,0 105,47.1 105,105 z"
   id="path20"
   inkscape:connector-curvature="0" />
<path
   style="fill:#3c3a41"
   d="m 260,221 h -16 c -8.291,0 -15,-6.709 -15,-15 0,-8.291 6.709,-15 15,-15 h 16 c 8.291,0 15,6.709 15,15 0,8.291 -6.709,15 -15,15 z"
   id="path22"
   inkscape:connector-curvature="0" />
<path
   style="fill:#57555c"
   d="m 123,221 c -32.999,0 -60,26.999 -60,60 0,32.999 27.001,60 60,60 32.999,0 60,-27.001 60,-60 0,-33.001 -27.001,-60 -60,-60 z"
   id="path24"
   inkscape:connector-curvature="0" />
<path
   style="fill:#cae8f9"
   d="m 123,251 c -16.5,0 -30,13.5 -30,30 0,16.5 13.5,30 30,30 16.5,0 30,-13.5 30,-30 0,-16.5 -13.5,-30 -30,-30 z"
   id="path26"
   inkscape:connector-curvature="0" />
<path
   style="fill:#3c3a41"
   d="m 395,221 c -32.999,0 -60,26.999 -60,60 0,32.999 27.001,60 60,60 32.999,0 60,-27.001 60,-60 0,-33.001 -27.001,-60 -60,-60 z"
   id="path28"
   inkscape:connector-curvature="0" />
<path
   style="fill:#b7e0f6"
   d="m 395,251 c -16.5,0 -30,13.5 -30,30 0,16.5 13.5,30 30,30 16.5,0 30,-13.5 30,-30 0,-16.5 -13.5,-30 -30,-30 z"
   id="path30"
   inkscape:connector-curvature="0" />



<g
   id="g42"
   transform="translate(3,-171)">
</g>
<g
   id="g44"
   transform="translate(3,-171)">
</g>
<g
   id="g46"
   transform="translate(3,-171)">
</g>
<g
   id="g48"
   transform="translate(3,-171)">
</g>
<g
   id="g50"
   transform="translate(3,-171)">
</g>
<g
   id="g52"
   transform="translate(3,-171)">
</g>
<g
   id="g54"
   transform="translate(3,-171)">
</g>
<g
   id="g56"
   transform="translate(3,-171)">
</g>
<g
   id="g58"
   transform="translate(3,-171)">
</g>
<g
   id="g60"
   transform="translate(3,-171)">
</g>
<g
   id="g62"
   transform="translate(3,-171)">
</g>
<g
   id="g64"
   transform="translate(3,-171)">
</g>
<g
   id="g66"
   transform="translate(3,-171)">
</g>
<g
   id="g68"
   transform="translate(3,-171)">
</g>
<g
   id="g70"
   transform="translate(3,-171)">
</g>
</svg>