<?xml version="1.0" encoding="iso-8859-1"?>
<!-- Generator: Adobe Illustrator 19.0.0, SVG Export Plug-In . SVG Version: 6.00 Build 0)  -->
<svg version="1.1" id="Layer_1" xmlns="http://www.w3.org/2000/svg" xmlns:xlink="http://www.w3.org/1999/xlink" x="0px" y="0px"
	 viewBox="0 0 512.001 512.001" style="enable-background:new 0 0 512.001 512.001;" xml:space="preserve">
<path style="fill:#AFD5FF;" d="M228.082,180.39h89.973c49.095,0,64.408,16.068,122.515,64.607
	c8.476,7.08,15.927,14.836,23.455,21.576c41.051,36.734,47.088,38.085,47.874,72.765c0.181,7.848,0.072,25.153,0.022,36.285
	c-0.026,6.328-0.072,13.581-0.072,23.007c0,12.268-11.548,22.398-26.059,23.26l-151.522,0.06h-86.893l-96.897-0.052
	c-10.862-0.595-20.088-6.388-24.082-14.392c-1.369-2.738-2.129-5.738-2.129-8.877V180.102L228.082,180.39z"/>
<path style="fill:#95B8C2;" d="M124.267,244.87v-64.767l103.815,0.287h89.973c49.052,0,64.384,16.042,122.364,64.48H124.267z"/>
<path style="fill:#5B7F99;" d="M124.267,180.102l84.85,0.235c0.375,3.708,0.569,7.467,0.569,11.273
	c0,52.376-36.397,96.296-85.417,108.148V180.102H124.267z"/>
<path style="fill:#DC2C13;" d="M511.9,339.338c0.181,7.848,0.072,25.153,0.022,36.285c-0.026,6.328-0.072,13.581-0.072,23.007
	c0,12.268-11.548,22.398-26.059,23.26l-151.522,0.06h-86.893l-96.897-0.052c-10.862-0.595-20.088-6.389-24.082-14.392
	c-1.369-2.738-2.129-5.738-2.129-8.877V180.102l48.337,0.134c26.485,34.304,112.045,134.389,125.198,134.389h210.954
	C510.903,321.023,511.655,328.574,511.9,339.338z"/>
<g>
	<path style="fill:#B21100;" d="M511.899,380.828c-0.023,5.088-0.049,10.852-0.049,17.801c0,12.268-11.548,22.398-26.059,23.26
		l-151.522,0.06h-86.893l-96.897-0.052c-10.862-0.595-20.088-6.389-24.082-14.392c-1.369-2.738-2.129-5.738-2.129-8.877v-17.801
		H511.899z"/>
	<path style="fill:#B21100;" d="M124.267,299.757V180.102l48.337,0.134c7.403,9.588,19.422,24.316,33.183,40.56
		C195.171,259.733,163.834,290.192,124.267,299.757z"/>
</g>
<path style="fill:#651100;" d="M214.565,314.623c0,5.533-4.511,10.017-10.077,10.017h-14.663c-5.565,0-10.077-4.484-10.077-10.017
	c0-5.533,4.511-10.017,10.077-10.017h14.663C210.054,304.606,214.565,309.09,214.565,314.623z"/>
<path style="fill:#234556;" d="M485.793,421.951c0,26.68-21.691,48.311-48.449,48.311c-26.758,0-48.449-21.632-48.449-48.311
	c0-26.684,21.691-48.311,48.449-48.311C464.103,373.639,485.793,395.267,485.793,421.951z M198.928,373.639
	c-26.758,0-48.449,21.628-48.449,48.311c0,26.68,21.691,48.311,48.449,48.311s48.449-21.632,48.449-48.311
	C247.375,395.267,225.685,373.639,198.928,373.639z"/>
<path style="fill:#95B8C2;" d="M209.021,421.951c0,5.533-4.511,10.017-10.077,10.017c-5.565,0-10.094-4.484-10.094-10.017
	c0-5.533,4.496-10.017,10.061-10.017h0.033C204.509,411.933,209.021,416.418,209.021,421.951z M437.363,411.933h-0.033
	c-5.565,0-10.061,4.484-10.061,10.017c0,5.533,4.528,10.017,10.093,10.017c5.565,0,10.077-4.484,10.077-10.017
	C447.439,416.418,442.928,411.933,437.363,411.933z"/>
<path style="fill:#789EBD;" d="M76.442,355.206H10.077C4.512,355.206,0,350.721,0,345.188c0-5.533,4.511-10.017,10.077-10.017
	h66.365c5.565,0,10.077,4.484,10.077,10.017C86.52,350.721,82.008,355.206,76.442,355.206z M76.442,381.849H46.768
	c-5.565,0-10.077,4.484-10.077,10.017c0,5.533,4.511,10.017,10.077,10.017h29.674c5.565,0,10.077-4.484,10.077-10.017
	C86.519,386.333,82.008,381.849,76.442,381.849z"/>
<path style="fill:#95B8C2;" d="M99.073,264.147c-43.685,0-79.101-35.317-79.101-78.882c0-47.691,52.348-108.851,79.101-143.525
	c27.206,35.121,79.101,95.834,79.101,143.525C178.173,228.83,142.761,264.147,99.073,264.147L99.073,264.147z"/>
<path style="fill:#AFD5FF;" d="M99.073,41.739c1.645,2.123,3.381,4.341,5.189,6.643c9.603,20.126,15.846,40.129,15.846,58.567
	c0,53.951-43.601,97.739-97.583,98.247c-1.663-6.368-2.552-13.045-2.552-19.931C19.972,137.574,72.321,76.413,99.073,41.739z"/>
<path style="fill:#FFFFFF;" d="M136.125,183.442c0,20.355-16.62,36.915-37.05,36.915c-5.565,0-10.077-4.484-10.077-10.017
	s4.511-10.017,10.077-10.017c9.316,0,16.895-7.573,16.895-16.88c0-5.533,4.511-10.017,10.077-10.017
	C131.614,173.425,136.125,177.909,136.125,183.442z"/>
<g>
</g>
<g>
</g>
<g>
</g>
<g>
</g>
<g>
</g>
<g>
</g>
<g>
</g>
<g>
</g>
<g>
</g>
<g>
</g>
<g>
</g>
<g>
</g>
<g>
</g>
<g>
</g>
<g>
</g>
</svg>
